HIERARCHY
ROOT Hips
{
	OFFSET 0.000000 0.000000 0.000000 
	CHANNELS 6 Xposition Yposition Zposition Zrotation Yrotation Xrotation
	JOINT LeftUpLeg
	{
		OFFSET 1.363060 -1.794630 0.839290 
		CHANNELS 3 Zrotation Yrotation Xrotation
		JOINT LeftLeg
		{
			OFFSET 2.448110 -6.726130 0.000000 
			CHANNELS 3 Zrotation Yrotation Xrotation
			JOINT LeftFoot
			{
				OFFSET 2.562200 -7.039590 0.000000 
				CHANNELS 3 Zrotation Yrotation Xrotation
				JOINT LeftToeBase
				{
					OFFSET 0.157640 -0.433110 2.322550 
					CHANNELS 3 Zrotation Yrotation Xrotation
					End Site
					{
						OFFSET 0.000000 0.000000 0.000000 
					}
				}
			}
		}
	}
	JOINT RightUpLeg
	{
		OFFSET -1.305520 -1.794630 0.839290 
		CHANNELS 3 Zrotation Yrotation Xrotation
		JOINT RightLeg
		{
			OFFSET -2.542530 -6.985550 0.000000 
			CHANNELS 3 Zrotation Yrotation Xrotation
			JOINT RightFoot
			{
				OFFSET -2.568260 -7.056230 0.000000 
				CHANNELS 3 Zrotation Yrotation Xrotation
				JOINT RightToeBase
				{
					OFFSET -0.164730 -0.452590 2.363150 
					CHANNELS 3 Zrotation Yrotation Xrotation
					End Site
					{
						OFFSET 0.000000 0.000000 0.000000 
					}
				}
			}
		}
	}
	JOINT Spine
	{
		OFFSET 0.028270 2.035590 -0.193380 
		CHANNELS 3 Zrotation Yrotation Xrotation
		JOINT Spine1
		{
			OFFSET 0.056720 2.048850 -0.042750 
			CHANNELS 3 Zrotation Yrotation Xrotation
			JOINT Neck1
			{
				OFFSET -0.054170 1.746240 0.172020 
				CHANNELS 3 Zrotation Yrotation Xrotation
				JOINT Head
				{
					OFFSET 0.104070 1.761360 -0.123970 
					CHANNELS 3 Zrotation Yrotation Xrotation
					End Site
					{
						OFFSET 0.000000 0.000000 0.000000 
					}
				}
			}
			JOINT LeftArm
			{
				OFFSET 3.362410 1.200890 -0.311210 
				CHANNELS 3 Zrotation Yrotation Xrotation
				JOINT LeftForeArm
				{
					OFFSET 4.983000 -0.000000 -0.000000 
					CHANNELS 3 Zrotation Yrotation Xrotation
					JOINT LeftHand
					{
						OFFSET 3.483560 -0.000000 -0.000000 
						CHANNELS 3 Zrotation Yrotation Xrotation
						JOINT LeftHandIndex1
						{
							OFFSET 0.715260 -0.000000 -0.000000 
							CHANNELS 3 Zrotation Yrotation Xrotation
							End Site
							{
								OFFSET 0.000000 0.000000 0.000000 
							}
						}
					}
				}
			}
			JOINT RightArm
			{
				OFFSET -3.136600 1.374050 -0.404650 
				CHANNELS 3 Zrotation Yrotation Xrotation
				JOINT RightForeArm
				{
					OFFSET -5.241900 -0.000000 -0.000000 
					CHANNELS 3 Zrotation Yrotation Xrotation
					JOINT RightHand
					{
						OFFSET -3.444170 -0.000000 -0.000000 
						CHANNELS 3 Zrotation Yrotation Xrotation
						JOINT RightHandIndex1
						{
							OFFSET -0.622530 -0.000000 -0.000000 
							CHANNELS 3 Zrotation Yrotation Xrotation
							End Site
							{
								OFFSET 0.000000 0.000000 0.000000 
							}
						}
					}
				}
			}
		}
	}
}
MOTION
Frames: 9
Frame Time: 0.041667
4.955927 18.078786 -16.198893 -6.576211 -7.900154 4.390637 -6.152020 -2.369860 -3.184258 -1.081097 2.381502 3.943240 -1.102513 8.596341 0.663904 2.715800 10.220200 29.692600 22.264858 -5.594620 -0.505980 -2.775631 -12.814358 33.120204 -0.182443 -3.734107 -11.290414 -2.169800 -9.211200 26.458100 -1.239773 4.016790 -3.681501 -5.419895 2.205605 1.872197 -2.314503 5.006675 -9.857814 -1.011300 2.676800 -4.893200 -75.642489 -2.061276 29.087070 14.763539 -19.962550 -2.665608 0.685329 0.363585 -10.607136 -7.125000 0.000000 0.000000 85.964886 -8.051269 18.127024 -20.875927 25.505172 -6.461121 1.360916 1.726340 1.820864 7.125000 0.000000 0.000000 
5.000225 18.094112 -16.142137 -6.731517 -8.788167 4.236582 -6.363031 -3.869402 -1.594613 -1.186422 2.100138 3.116554 -1.409821 9.729141 -1.757246 2.895300 10.523600 30.689300 21.829550 -5.310273 -0.870097 -2.831794 -13.219054 34.250594 0.110226 -9.021526 -13.880244 -0.021600 -0.949600 2.610100 -1.368148 4.425075 -3.522756 -5.735343 2.419845 2.226592 -1.920883 5.118191 -10.049557 -0.846000 2.722600 -4.971900 -75.376090 -1.984630 29.385069 14.985127 -20.250734 -2.748644 0.690431 0.372329 -11.047540 -7.125000 0.000000 0.000000 85.857769 -7.813106 18.355284 -20.978998 25.619174 -6.502250 1.339028 1.736358 1.788707 7.125000 0.000000 0.000000 
5.035821 18.104494 -16.117911 -6.665128 -9.167761 4.234765 -6.722593 -4.643912 -0.913835 -1.240056 1.946614 2.659177 -1.532212 10.192233 -2.914821 3.092100 10.842700 31.751200 21.276046 -5.231753 -1.734037 -3.120356 -13.607908 35.605824 0.156262 -9.207806 -12.735417 -0.048000 -1.413200 3.886600 -1.512003 4.595857 -3.491395 -5.920254 2.505373 2.190322 -1.824473 5.165847 -10.494725 -0.821600 2.743000 -5.149000 -75.189480 -1.922145 29.422786 15.055106 -20.351251 -2.803812 0.724132 0.385957 -11.382389 -7.125000 0.000000 0.000000 85.851974 -7.699433 18.498147 -21.074410 25.714743 -6.532585 1.338372 1.728389 1.888048 7.125000 0.000000 0.000000 
5.035525 18.094705 -16.149454 -6.845261 -8.929354 4.945690 -6.224201 -3.285297 -2.524556 -1.165679 2.080154 3.068112 -1.354884 9.536467 -1.154344 3.000500 10.695900 31.261000 21.581087 -4.979116 -3.644803 -3.461380 -14.037845 37.143589 0.161706 -9.064370 -11.957215 -0.153100 -2.521200 6.948600 -1.485495 4.460322 -3.614746 -5.673782 2.436279 1.912340 -1.748805 5.204928 -10.704994 -0.792300 2.758900 -5.184100 -75.027452 -2.265882 29.141912 14.978353 -20.247394 -2.766296 0.714920 0.379866 -11.033491 -7.125000 0.000000 0.000000 85.708988 -7.534987 18.794403 -21.321957 25.972896 -6.640079 1.330194 1.727053 1.878886 7.125000 0.000000 0.000000 
5.052928 18.094211 -16.150937 -6.935541 -9.041085 5.300073 -6.120990 -3.154395 -2.885764 -1.163414 2.057111 3.006964 -1.353293 9.534464 -1.045219 3.048900 10.773800 31.520700 21.494542 -4.761158 -4.993314 -3.764675 -14.432616 38.559200 0.223383 -9.697408 -11.449908 -0.107800 -2.116600 5.827900 -1.525185 4.486321 -3.640772 -5.620607 2.450488 1.830067 -1.629197 5.255218 -10.966453 -0.743800 2.781100 -5.266700 -74.847403 -2.424119 29.061832 14.989706 -20.264759 -2.776948 0.722589 0.382449 -11.042241 -7.125000 0.000000 0.000000 85.569431 -7.376281 19.088653 -21.522779 26.182248 -6.724912 1.320814 1.726067 1.897883 7.125000 0.000000 0.000000 
5.069144 18.092530 -16.155485 -7.011671 -9.117671 5.658439 -6.023145 -2.999239 -3.293126 -1.158920 2.042989 2.969901 -1.345147 9.512242 -0.868707 3.082100 10.826800 31.698000 21.403281 -4.552108 -6.365017 -4.092270 -14.813817 39.985277 0.246781 -9.860504 -10.781305 -0.125500 -2.284000 6.291100 -1.559816 4.487692 -3.669402 -5.550330 2.452058 1.735545 -1.562269 5.291933 -11.234515 -0.715300 2.798900 -5.350700 -74.665987 -2.597066 28.966841 14.988259 -20.265179 -2.782612 0.729553 0.384704 -11.047404 -7.125000 0.000000 0.000000 85.414806 -7.215092 19.419581 -21.738399 26.406272 -6.817154 1.312686 1.723806 1.922776 7.125000 0.000000 0.000000 
5.086546 18.090849 -16.158056 -7.076105 -9.233173 5.955850 -5.965697 -2.960036 -3.549205 -1.161954 2.012889 2.882533 -1.358644 9.574150 -0.860493 3.102100 10.858500 31.804000 21.275000 -4.358225 -7.643175 -4.423446 -15.177926 41.385416 0.261443 -9.949140 -10.166051 -0.127200 -2.299300 6.333500 -1.602800 4.504278 -3.684170 -5.509445 2.461207 1.656739 -1.535827 5.312739 -11.517424 -0.702900 2.810700 -5.443200 -74.463281 -2.759152 28.903447 14.993078 -20.271821 -2.788382 0.734028 0.387072 -11.087972 -7.125000 0.000000 0.000000 85.265541 -7.048463 19.768897 -21.958209 26.634446 -6.912076 1.305868 1.720344 1.952793 7.125000 0.000000 0.000000 
5.106718 18.090256 -16.156375 -7.111208 -9.410814 6.150339 -5.988638 -3.113897 -3.553661 -1.176981 1.955172 2.708821 -1.404026 9.754453 -1.131737 3.124000 10.893200 31.920500 21.070125 -4.197135 -8.763420 -4.753027 -15.520541 42.740757 0.268038 -9.962065 -9.577790 -0.112900 -2.166300 5.965600 -1.660806 4.548710 -3.677886 -5.508895 2.484047 1.598297 -1.542211 5.323259 -11.819440 -0.704700 2.818800 -5.549900 -74.246814 -2.893664 28.869496 15.005509 -20.287189 -2.796695 0.737848 0.390128 -11.169878 -7.125000 0.000000 0.000000 85.127902 -6.880603 20.133808 -22.174738 26.858457 -7.005833 1.301509 1.714937 1.993384 7.125000 0.000000 0.000000 
5.128669 18.090355 -16.151926 -7.127981 -9.634615 6.255105 -6.068283 -3.362737 -3.377257 -1.198142 1.878865 2.477679 -1.465671 9.996408 -1.568234 3.148500 10.931700 32.049900 20.823332 -4.067857 -9.741486 -5.078221 -15.841850 44.046725 0.268970 -9.921975 -9.016038 -0.088900 -1.922800 5.292300 -1.726729 4.612640 -3.654986 -5.535577 2.516599 1.549062 -1.588180 5.330548 -12.136027 -0.723000 2.827400 -5.668800 -74.029709 -3.013350 28.841349 15.010608 -20.292414 -2.802527 0.741293 0.393757 -11.268303 -7.125000 0.000000 0.000000 85.000073 -6.720908 20.520388 -22.400533 27.091198 -7.104272 1.299996 1.706812 2.050904 7.125000 0.000000 0.000000 
